# AST/ASF file generated using VICON BodyLanguage
# -----------------------------------------------
:version 1.10
:name VICON
:units
  mass 1.0
  length 0.45
  angle deg
:documentation
   .ast/.asf automatically generated from VICON data using
   VICON BodyBuilder and BodyLanguage model FoxedUp or BRILLIANT.MOD
:root
   order TX TY TZ RX RY RZ
   axis XYZ
   position 0 0 0  
   orientation 0 0 0 
:bonedata
  begin
     id 1 
     name lhipjoint
     direction 0.603808 -0.713975 0.35448 
     length 2.2025 
     axis 0 0 0  XYZ
  end
  begin
     id 2 
     name lfemur
     direction 0.34202 -0.939693 0  
     length 6.55877  
     axis 0 0 20  XYZ
    dof rx ry rz
    limits (-160.0 20.0)
           (-70.0 70.0)
           (-60.0 70.0)
  end
  begin
     id 3 
     name ltibia
     direction 0.34202 -0.939693 0   
     length 6.80302   
     axis 0 0 20   XYZ
    dof rx
    limits (-10.0 170.0)
  end
  begin
     id 4 
     name lfoot
     direction 0.091848 -0.25235 0.963267   
     length 2.03446   
     axis -90 7.62852e-016 20   XYZ
    dof rx rz
    limits (-45.0 90.0)
           (-70.0 20.0)
  end
  begin
     id 5 
     name ltoes
     direction 1.53608e-011 -4.21925e-011 1   
     length 1.02033   
     axis -90 7.62852e-016 20   XYZ
    dof rx
    limits (-90.0 20.0)
  end
  begin
     id 6 
     name rhipjoint
     direction -0.587285 -0.724947 0.359928   
     length 2.16916  
     axis 0 0 0  XYZ 
  end
  begin
     id 7 
     name rfemur
     direction -0.34202 -0.939693 0   
     length 6.43173   
     axis 0 0 -20   XYZ
    dof rx ry rz
    limits (-160.0 20.0)
           (-70.0 70.0)
           (-70.0 60.0)
  end
  begin
     id 8 
     name rtibia
     direction -0.34202 -0.939693 0   
     length 6.70662   
     axis 0 0 -20   XYZ
    dof rx
    limits (-10.0 170.0)
 end
 begin
     id 9 
     name rfoot
     direction -0.11854 -0.325686 0.938018   
     length 2.0773  
     axis -90 -7.62852e-016 -20   XYZ
    dof rx rz
    limits (-45.0 90.0)
           (-20.0 70.0)
  end
  begin
     id 10 
     name rtoes
     direction -1.53547e-011 -4.21838e-011 1   
     length 1.03267   
     axis -90 -7.62852e-016 -20   XYZ
    dof rx
    limits (-90.0 20.0)
  end
  begin
     id 11 
     name lowerback
     direction -0.0286554 0.999539 0.0100613   
     length 2.08751   
     axis 0 0 0   XYZ
    dof rx ry rz
    limits (-20.0 45.0)
           (-30.0 30.0)
           (-30.0 30.0)
  end
  begin
     id 12 
     name upperback
     direction 0.0227093 0.999705 -0.00860929   
     length 2.08517   
     axis 0 0 0   XYZ
    dof rx ry rz
    limits (-20.0 45.0)
           (-30.0 30.0)
           (-30.0 30.0)
  end
  begin
     id 13 
     name thorax
     direction 0.0351627 0.999285 -0.013892   
     length 2.08412   
     axis 0 0 0   XYZ
    dof rx ry rz
    limits (-20.0 45.0)
           (-30.0 30.0)
           (-30.0 30.0)
  end
  begin
     id 14 
     name lowerneck
     direction -0.0696283 0.997344 0.0213922   
     length 1.44164   
     axis 0 0 0   XYZ
    dof rx ry rz
    limits (-20.0 45.0)
           (-30.0 30.0)
           (-30.0 30.0)
  end
  begin
     id 15 
     name upperneck
     direction 0.0531 0.990412 -0.127531   
     length 1.45022   
     axis 0 0 0   XYZ
    dof rx ry rz
    limits (-20.0 45.0)
           (-30.0 30.0)
           (-30.0 30.0)
  end
  begin
     id 16
     name head
     direction 0.0188154 0.998548 -0.0504727  
     length 1.45845  
     axis 0 0 0   XYZ
    dof rx ry rz
    limits (-20.0 45.0)
           (-30.0 30.0)
           (-30.0 30.0)
  end
  begin
     id 17 
     name lclavicle
     direction 0.961559 0.260051 0.088188  
     length 2.86057  
     axis 0 0 0   XYZ
    dof ry rz
    limits (-20.0 10.0)
           (0.0 20.0)
  end
  begin
     id 18 
     name lhumerus
     direction 1 -4.48959e-011 2.88185e-027   
     length 4.36901   
     axis 180 -30 -90   XYZ
    dof rx ry rz
    limits (-60.0 90.0)
           (-90.0 90.0)
           (-90.0 90.0)
  end
  begin
     id 19
     name lradius
     direction 1 -4.48965e-011 -3.92618e-028   
     length 3.21737   
     axis 180 -30 -90   XYZ
    dof rx
    limits (-10.0 170.0)
  end
  begin
     id 20
     name lwrist
     direction 1 -4.49037e-011 2.57246e-027   
     length 1.60869   
     axis -1.61769e-015 90 90   XYZ
    dof ry
    limits (-180.0 0.0)
 end
  begin
     id 21 
     name lhand
     direction 1 -4.48807e-011 5.12958e-027   
     length 0.564313   
     axis -3.27988e-015 90 90   XYZ
    dof rx rz
    limits (-90.0 90.0)
           (-45.0 45.0)
  end
  begin
     id 22 
     name lfingers
     direction 1 -4.48879e-011 1.02687e-026   
     length 0.454963   
     axis -6.5598e-015 90 90   XYZ
    dof rx
    limits (0.0 90.0)
  end
  begin
     id 23
     name lthumb
     direction 0.707107 -6.3475e-011 0.707107   
     length 0.653239   
     axis -90 45 2.19363e-014   XYZ
    dof rx rz
    limits (-45.0 45.0)
           (-45.0 45.0)
  end
  begin
     id 24 
     name rclavicle
     direction -0.954677 0.253915 0.155304   
     length 3.11497  
     axis 0 0 0   XYZ 
    dof ry rz
    limits (-10.0 20.0)
           (-20.0 0.0)
  end
  begin
     id 25 
     name rhumerus
     direction -1 -4.48958e-011 -8.20169e-028  
     length 4.34118   
     axis 180 30 90   XYZ
    dof rx ry rz
    limits (-90.0 60.0)
           (-90.0 90.0)
           (-90.0 90.0)
  end
  begin
     id 26 
     name rradius
     direction -1 -4.48978e-011 1.5676e-027   
     length 3.09531   
     axis 180 30 90   XYZ
    dof rx
    limits (-10.0 170.0)
  end
  begin
     id 27 
     name rwrist
     direction -1 -4.49001e-011 2.57123e-027   
     length 1.54765   
     axis -1.61769e-015 -90 -90   XYZ
    dof ry
    limits (-180.0 0.0)
  end
  begin
     id 28
     name rhand
     direction -1 -4.48847e-011 5.13225e-027   
     length 0.597446   
     axis -3.27988e-015 -90 -90   XYZ
    dof rx rz
    limits (-90.0 90.0)
           (-45.0 45.0)
  end
  begin
     id 29
     name rfingers
     direction -1 -4.49094e-011 1.02974e-026   
     length 0.481677   
     axis -6.5598e-015 -90 -90   XYZ
    dof rx
    limits (0.0 90.0)
  end
  begin
     id 30
     name rthumb
     direction -0.707107 -6.34859e-011 0.707107   
     length 0.691594   
     axis -90 -45 -2.19363e-014   XYZ
    dof rx rz
    limits (-45.0 45.0)
           (-45.0 45.0)
  end
:hierarchy
  begin
    root lhipjoint rhipjoint lowerback
    lhipjoint lfemur
    lfemur ltibia
    ltibia lfoot
    lfoot ltoes
    rhipjoint rfemur
    rfemur rtibia
    rtibia rfoot
    rfoot rtoes
    lowerback upperback
    upperback thorax
    thorax lowerneck lclavicle rclavicle
    lowerneck upperneck
    upperneck head
    lclavicle lhumerus
    lhumerus lradius
    lradius lwrist
    lwrist lhand lthumb
    lhand lfingers
    rclavicle rhumerus
    rhumerus rradius
    rradius rwrist
    rwrist rhand rthumb
    rhand rfingers
  end

#!OML:ASF I:\Acrobat_Osman\acrobat\cartwheel_test 2\Patient 1\Session 1\acrobat.ASF
:FULLY-SPECIFIED
:DEGREES
18
root 9.41414 14.7747 39.829 -130.15 -27.0976 152.077
lowerback 15.8466 -0.533513 4.32124
upperback 2.41083 -0.192942 9.77493
thorax -6.28639 -0.431927 8.23816
lowerneck -3.25985 -12.0746 -4.69327
upperneck -5.36593 -15.6633 9.56343
head 0.0576245 -7.80589 3.54179
rclavicle 4.77083e-014 5.725e-014
rhumerus 18.2546 -21.062 -19.7718
rradius 31.0034
rwrist -6.99882
rhand -23.3183 20.2811
rfingers 7.12502
rthumb 3.1357 -9.67555
lclavicle 4.77083e-014 5.725e-014
lhumerus 44.2206 26.6704 -11.6862
lradius 55.7697
lwrist -0.464348
lhand -14.9976 34.3908
lfingers 7.12502
lthumb 11.1671 64.0736
rfemur -70.9277 -20.9304 11.7023
rtibia 70.5722
rfoot -28.3928 -5.17713
rtoes 9.74761
lfemur -18.8832 10.4806 -35.7741
ltibia 26.6289
lfoot -0.112164 15.3714
ltoes -25.8389
19
root 9.44128 14.6104 39.6161 -129.093 -25.7582 151.557
lowerback 17.073 -0.885082 5.13202
upperback 2.32876 -0.3927 9.62352
thorax -7.03029 -0.546286 7.71495
lowerneck -3.58352 -11.5576 -4.86493
upperneck -5.47227 -14.9624 9.5084
head 0.036752 -7.45448 3.56793
rclavicle -3.18055e-014 -6.20208e-014
rhumerus 21.0405 -20.9836 -21.8219
rradius 30.8704
rwrist -7.46196
rhand -24.3063 20.2181
rfingers 7.12502
rthumb 2.1815 -9.75049
lclavicle -3.18055e-014 -6.20208e-014
lhumerus 44.8596 27.2296 -11.0006
lradius 53.7086
lwrist -0.118956
lhand -15.4114 35.3188
lfingers 7.12502
lthumb 10.7679 65.0228
rfemur -73.6644 -21.4393 11.992
rtibia 73.6423
rfoot -25.999 -5.22652
rtoes -3.10748
lfemur -18.3789 7.98096 -35.7384
ltibia 26.1152
lfoot -2.61401 16.7813
ltoes -16.5939
20
root 9.47225 14.4562 39.386 -127.822 -24.7054 150.933
lowerback 18.1694 -1.56556 6.35389
upperback 2.23892 -0.936231 9.39126
thorax -7.69544 -0.841494 6.95474
lowerneck -4.52064 -10.8155 -5.02694
upperneck -5.12556 -13.9722 9.488
head 0.246998 -6.93828 3.56305
rclavicle 0 -7.95139e-015
rhumerus 24.4814 -20.9974 -24.7226
rradius 30.4659
rwrist -7.76333
rhand -24.8881 20.2273
rfingers 7.12502
rthumb 1.61962 -9.7463
lclavicle 0 -7.95139e-015
lhumerus 45.0764 28.0149 -10.6232
lradius 51.9049
lwrist 0.718324
lhand -16.3841 36.1558
lfingers 7.12502
lthumb 9.8296 65.9064
rfemur -75.8879 -21.8712 12.1247
rtibia 76.1313
rfoot -25.757 -4.49752
rtoes -7.87785
lfemur -18.3555 7.53022 -35.9377
ltibia 25.6781
lfoot -3.7383 15.6876
ltoes -13.1281
21
root 9.50416 14.3299 39.1236 -126.472 -23.6206 150.235
lowerback 18.8935 -1.07476 6.14237
upperback 2.25255 -0.273642 9.99138
thorax -8.12311 -0.532186 7.64977
lowerneck -4.65102 -10.7167 -4.29997
upperneck -5.91591 -13.8382 8.68846
head -0.11624 -6.90088 3.20811
rclavicle 6.36111e-015 -8.5875e-014
rhumerus 25.6648 -21.2884 -24.2461
rradius 30.7636
rwrist -9.24909
rhand -25.3412 19.8883
rfingers 7.12502
rthumb 1.18202 -10.0881
lclavicle 6.36111e-015 -8.5875e-014
lhumerus 47.8267 29.4707 -6.55946
lradius 49.8805
lwrist 1.33847
lhand -17.3363 36.3919
lfingers 7.12502
lthumb 8.91087 66.1837
rfemur -77.2815 -21.9247 11.7143
rtibia 77.9971
rfoot -27.0227 -3.41495
rtoes -8.03106
lfemur -18.296 7.75668 -36.266
ltibia 25.0784
lfoot -4.1735 14.0831
ltoes -9.44968
22
root 9.53872 14.2203 38.8441 -125.065 -22.5648 149.514
lowerback 19.8957 -1.09596 6.63961
upperback 2.14729 -0.0769155 10.2673
thorax -8.806 -0.460919 7.70932
lowerneck -4.76958 -10.4086 -4.48813
upperneck -6.43739 -13.4046 8.62088
head -0.283881 -6.69629 3.2494
rclavicle -2.22639e-014 -7.63333e-014
rhumerus 27.4735 -21.1817 -24.7325
rradius 30.9151
rwrist -10.1193
rhand -26.3945 19.4244
rfingers 7.12502
rthumb 0.1647 -10.5552
lclavicle -2.22639e-014 -7.63333e-014
lhumerus 49.5624 30.5792 -3.88156
lradius 48.2228
lwrist 2.45109
lhand -18.1634 36.7301
lfingers 7.12502
lthumb 8.11268 66.5544
rfemur -77.9375 -21.7148 11.0861
rtibia 79.2039
rfoot -28.7802 -2.86431
rtoes -9.06791
lfemur -18.5112 8.261 -36.6946
ltibia 24.8182
lfoot -3.12348 12.6343
ltoes -9.00563
23
root 9.57239 14.0661 38.578 -123.805 -21.4159 149.014
lowerback 21.2453 -1.26774 7.5282
upperback 2.01168 0.0722679 10.4345
thorax -9.70718 -0.431756 7.45985
lowerneck -4.87582 -9.98927 -4.83031
upperneck -6.96119 -12.8275 8.54941
head -0.454751 -6.41945 3.32239
rclavicle 3.18055e-015 3.18055e-015
rhumerus 29.7726 -21.346 -25.868
rradius 30.8731
rwrist -10.3309
rhand -27.7208 19.2762
rfingers 7.12502
rthumb -1.11628 -10.7006
lclavicle 3.18055e-015 3.18055e-015
lhumerus 50.6051 31.4525 -2.24068
lradius 46.7729
lwrist 3.83545
lhand -19.0872 37.1442
lfingers 7.12502
lthumb 7.22098 67.001
rfemur -78.4045 -21.237 10.6754
rtibia 80.0522
rfoot -30.6202 -2.84974
rtoes -9.23593
lfemur -18.4014 8.41523 -36.8194
ltibia 24.6028
lfoot -2.03993 11.6439
ltoes -3.82472
24
root 9.59695 13.9158 38.2881 -120.631 -20.986 146.93
lowerback 20.681 -1.94094 8.58809
upperback 1.44377 -0.519111 10.6277
thorax -10.0054 -0.73286 7.26537
lowerneck -5.12675 -9.53029 -5.03286
upperneck -7.49346 -12.2081 8.37874
head -0.625113 -6.12254 3.3327
rclavicle -6.36111e-015 5.56597e-015
rhumerus 32.4751 -22.1441 -27.6413
rradius 30.551
rwrist -10.0868
rhand -29.0856 19.7207
rfingers 7.12502
rthumb -2.43435 -10.2451
lclavicle -6.36111e-015 5.56597e-015
lhumerus 51.3635 32.2518 -1.18404
lradius 45.4211
lwrist 4.98054
lhand -20.1626 37.5204
lfingers 7.12502
lthumb 6.18287 67.4101
rfemur -79.8412 -22.2937 10.2156
rtibia 80.9299
rfoot -32.8276 -2.86469
rtoes -5.2529
lfemur -19.7535 10.8955 -37.9928
ltibia 24.2827
lfoot 1.33468 5.9308
ltoes -12.1406
25
root 9.64213 13.7877 38.0343 -119.369 -18.5451 147.963
lowerback 22.3508 -1.42484 8.97976
upperback 1.38725 0.495092 10.5721
thorax -11.0504 -0.291759 6.79871
lowerneck -5.69097 -9.06812 -5.15335
upperneck -7.92985 -11.5849 8.26099
head -0.713761 -5.82086 3.3251
rclavicle -6.36111e-014 -1.86062e-013
rhumerus 35.5593 -23.2182 -29.8193
rradius 29.8355
rwrist -9.87232
rhand -30.0346 19.9756
rfingers 7.12502
rthumb -3.35085 -9.97778
lclavicle -6.36111e-014 -1.86062e-013
lhumerus 51.8332 33.1113 -0.645363
lradius 44.3387
lwrist 6.11102
lhand -21.3206 38.0424
lfingers 7.12502
lthumb 5.06476 67.9619
rfemur -81.7617 -20.3027 10.1207
rtibia 81.4134
rfoot -34.6234 -1.94787
rtoes 1.36082
lfemur -19.502 9.85449 -37.6524
ltibia 23.7372
lfoot 0.706643 7.59201
ltoes -0.310072
26
root 9.68311 13.6793 37.6964 -116.431 -18.1357 145.35
lowerback 22.108 -2.34997 10.1843
upperback 0.877331 -0.322642 10.6378
thorax -11.4737 -0.709393 6.49175
lowerneck -5.88132 -8.64052 -5.30419
upperneck -8.62194 -11.0099 8.2124
head -0.940001 -5.55401 3.37465
rclavicle -1.20861e-013 -1.11717e-013
rhumerus 39.1046 -24.6182 -32.6347
rradius 28.7521
rwrist -9.18767
rhand -30.7096 19.936
rfingers 7.12502
rthumb -4.0027 -10.0061
lclavicle -1.20861e-013 -1.11717e-013
lhumerus 52.2643 33.8808 -0.070945
lradius 43.6432
lwrist 7.41105
lhand -22.2322 38.3006
lfingers 7.12502
lthumb 4.18454 68.2393
rfemur -82.5914 -22.0277 9.28269
rtibia 82.1534
rfoot -38.3389 0.0317366
rtoes 11.7243
lfemur -18.784 10.0619 -37.596
ltibia 22.9243
lfoot 1.45193 2.90013
ltoes 0.824049
27
root 9.74301 13.5931 37.379 -115.173 -15.8676 145.663
lowerback 23.7525 -1.99014 10.3668
upperback 0.860729 0.470631 10.5591
thorax -12.4358 -0.368036 6.16312
lowerneck -5.53385 -8.28361 -5.45112
upperneck -9.78365 -10.5266 8.31208
head -1.39928 -5.35013 3.51755
rclavicle 3.81667e-014 9.89948e-014
rhumerus 43.2054 -26.7417 -36.6154
rradius 27.2801
rwrist -7.18941
rhand -32.2215 20.8836
rfingers 7.12502
rthumb -5.4626 -9.02603
lclavicle 3.81667e-014 9.89948e-014
lhumerus 53.0735 34.6236 0.989336
lradius 43.3438
lwrist 9.06232
lhand -23.2762 38.6675
lfingers 7.12502
lthumb 3.17637 68.6236
rfemur -83.5469 -20.9645 8.60215
rtibia 82.2056
rfoot -36.5101 -0.646715
rtoes -0.478962
lfemur -17.2589 10.3206 -37.1101
ltibia 21.684
lfoot 1.33283 1.82712
ltoes -1.90391
28
root 9.80823 13.5094 37.0271 -113.179 -14.1062 144.885
lowerback 24.3713 -1.8021 10.5997
upperback 0.816625 0.903963 10.5747
thorax -12.8438 -0.185284 5.94798
lowerneck -6.15586 -8.08106 -5.1532
upperneck -10.4165 -10.255 8.24274
head -1.54001 -5.24063 3.44502
rclavicle 1.27222e-014 -4.80065e-014
rhumerus 47.9614 -29.669 -41.8992
rradius 25.7136
rwrist -4.77817
rhand -34.0009 22.8058
rfingers 7.12502
rthumb -7.18039 -7.0524
lclavicle 1.27222e-014 -4.80065e-014
lhumerus 54.0358 35.4523 2.07511
lradius 43.5597
lwrist 11.5472
lhand -24.6488 39.5631
lfingers 7.12502
lthumb 1.85071 69.5348
rfemur -84.2638 -21.037 7.82359
rtibia 82.0685
rfoot -36.3901 -0.291524
rtoes -3.28899
lfemur -14.8508 9.1656 -35.9296
ltibia 20.0207
lfoot 0.589319 2.30829
ltoes 0.524893
29
root 9.88106 13.4403 36.6448 -110.75 -12.6745 143.353
lowerback 24.3936 -1.76781 11.0129
upperback 0.688406 1.11316 10.6258
thorax -13.0102 -0.107577 5.71609
lowerneck -6.92579 -7.9308 -4.66937
upperneck -11.1372 -10.0435 8.35721
head -1.67955 -5.17248 3.39673
rclavicle -2.03555e-013 -7.91163e-014
rhumerus 53.2613 -32.6623 -48.2363
rradius 24.4008
rwrist -2.83301
rhand -35.3803 24.1829
rfingers 7.12502
rthumb -8.51181 -5.6256
lclavicle -2.03555e-013 -7.91163e-014
lhumerus 54.6629 36.0677 2.57964
lradius 44.3939
lwrist 14.8696
lhand -25.7392 40.7107
lfingers 7.12502
lthumb 0.797674 70.689
rfemur -84.6511 -21.904 7.00664
rtibia 81.5178
rfoot -36.9687 0.371934
rtoes -2.98905
lfemur -11.607 7.37094 -34.161
ltibia 18.1562
lfoot 1.75666 4.93918
ltoes 3.31573
30
root 9.97017 13.4005 36.2297 -108.201 -11.208 141.438
lowerback 24.3662 -1.73505 11.3182
upperback 0.351217 1.33921 10.663
thorax -13.4032 -0.0135109 5.54054
lowerneck -7.14282 -7.79145 -4.09535
upperneck -12.1503 -9.84096 8.56819
head -2.01069 -5.12704 3.40852
rclavicle -1.24042e-013 -4.29375e-014
rhumerus 58.1064 -34.8954 -54.3193
rradius 23.5738
rwrist -1.92885
rhand -36.5334 24.5319
rfingers 7.12502
rthumb -9.62452 -5.22821
lclavicle -1.24042e-013 -4.29375e-014
lhumerus 55.6306 36.332 3.3889
lradius 45.437
lwrist 17.8783
lhand -26.6967 41.6374
lfingers 7.12502
lthumb -0.127154 71.6171
rfemur -84.5185 -22.9493 5.74683
rtibia 80.4581
rfoot -37.3809 1.20382
rtoes -2.65651
lfemur -7.43823 5.93347 -32.1409
ltibia 15.6321
lfoot 4.80051 8.21433
ltoes -2.21635
31
root 10.0712 13.3871 35.7748 -105.5 -9.48972 139.345
lowerback 24.115 -1.60083 11.2614
upperback -0.43693 1.64322 10.9883
thorax -13.6126 0.060914 5.3355
lowerneck -6.9493 -7.62097 -3.5323
upperneck -13.1569 -9.57592 8.8537
head -2.41382 -5.05389 3.47325
rclavicle 5.40694e-014 -1.98785e-014
rhumerus 61.8083 -36.2411 -59.2404
rradius 23.4834
rwrist -2.36446
rhand -37.1486 24.6298
rfingers 7.12502
rthumb -10.218 -5.10203
lclavicle 5.40694e-014 -1.98785e-014
lhumerus 57.2567 36.4116 5.07436
lradius 46.1405
lwrist 19.436
lhand -27.867 41.4287
lfingers 7.12502
lthumb -1.25742 71.4047
rfemur -83.8009 -23.8156 3.89286
rtibia 78.6393
rfoot -37.4322 1.57991
rtoes -2.33225
lfemur -2.70949 5.60309 -29.9974
ltibia 12.2699
lfoot 8.34436 11.6568
ltoes -8.07512
